# xmcd
#
# Track frame offsets:
#	150
#	15175
#	29650
#	43525
#	56725
#	70037
#	84080
#	98162
#	111045
#	125742
#	139187
#	151982
#	164855
#	178827
#	192312
#	206500
#	218575
#	232520
#	244737
#	256150
#	269787
#	284925
#	298200
#	311275
#
# Disc length: 4334
#
# Revision: 1
# Processed by: cddbd v1.5.1PL0 Copyright (c) Steve Scherf et al.
# Submitted via: dBpowerAMP V4.0
# Normalized: r0:TDELIM( - )
#
DISCID=6210ec18
DTITLE=Various Artist - Fattenin' Frogs For Snakes:  The Essential Recordings of the Blues Ladies
DYEAR=1995
DGENRE=Blues
TTITLE0=Ma Rainey - See See Rider Blues
TTITLE1=Ma Rainey - Blame it on the Blues
TTITLE2=Clara Smith - Don't Advertise Your Man
TTITLE3=Alberta Hunter - Nobody Knows the Way I Feel This Mornin
TTITLE4=Ida Cox - How Long Daddy, How Long
TTITLE5=Victoria Spivey - Black Snake Blues
TTITLE6=Sippie Wallace - Bedroom Blues
TTITLE7=Chippie Hill - Trouble in Mind
TTITLE8=Bessie Smith - Gin House Blues
TTITLE9=Bessie Smith - Nobody Knows You When You're Down and Out\
TTITLE10=Bessid Smith - I Need a Little Sugar in my Bowl
TTITLE11=Lucille Bogan - My Georgia Grind
TTITLE12=Lucille Gogan - Black Angel Blues
TTITLE13=Memphis Minnie - Ice Man (Come on Up)
TTITLE14=Georgia White - You Done Lost Your Good Thing Now
TTITLE15=Georgia White - The Blues Ain't Nothin' But
TTITLE16=Lil Johnson - Hot Nuts (Get 'em From the Peanut Man
TTITLE17=Merline Johnson - Don't You Make Me High
TTITLE18=Rosetta Tharpe - Rock Me
TTITLE19=Rosetta Crawford - I'm Tired of Fattenin Frogs for Snakes
TTITLE20=Lil Green - Romance in the Dark
TTITLE21=Lil Green - Why Don't You Do Right
TTITLE22=Dinah Washington - Evil Gal Blues
TTITLE23=Dinah Washington - Salty Papa Blues
EXTD=
EXTT0=
EXTT1=
EXTT2=
EXTT3=
EXTT4=
EXTT5=
EXTT6=
EXTT7=
EXTT8=
EXTT9=
EXTT10=
EXTT11=
EXTT12=
EXTT13=
EXTT14=
EXTT15=
EXTT16=
EXTT17=
EXTT18=
EXTT19=
EXTT20=
EXTT21=
EXTT22=
EXTT23=
PLAYORDER=
